<?xml version="1.0" standalone="no"?>
<!DOCTYPE svg PUBLIC "-//W3C//DTD SVG 20010904//EN"
 "http://www.w3.org/TR/2001/REC-SVG-20010904/DTD/svg10.dtd">
<svg version="1.0" xmlns="http://www.w3.org/2000/svg"
 width="736.000000pt" height="736.000000pt" viewBox="0 0 736.000000 736.000000"
 preserveAspectRatio="xMidYMid meet">
<metadata>
Created by potrace 1.14, written by Peter Selinger 2001-2017
</metadata>
<g transform="translate(0.000000,736.000000) scale(0.100000,-0.100000)"
fill="#000000" stroke="none">
<path d="M0 3680 l0 -3680 3680 0 3680 0 0 3680 0 3680 -3680 0 -3680 0 0
-3680z m3914 2714 c9 -8 16 -16 16 -18 0 -1 -32 -80 -71 -176 -63 -154 -138
-343 -269 -670 -47 -118 -222 -552 -249 -617 -11 -26 -31 -77 -45 -113 -13
-36 -43 -109 -65 -162 -23 -54 -41 -100 -41 -103 0 -3 200 -5 444 -5 l443 0
36 88 c57 140 99 245 111 278 23 63 25 64 180 64 151 0 166 -4 166 -47 0 -20
-63 -186 -142 -378 -11 -27 -33 -81 -48 -120 -26 -67 -58 -143 -170 -415 -28
-69 -76 -188 -106 -265 -31 -77 -62 -153 -69 -170 -7 -16 -31 -75 -53 -130
-22 -55 -97 -242 -167 -415 -70 -173 -145 -360 -167 -415 -22 -55 -47 -108
-56 -118 -14 -16 -32 -17 -166 -15 -150 3 -151 3 -154 26 -3 20 74 228 138
377 10 22 46 110 80 195 135 339 283 707 295 735 37 84 156 387 153 390 -8 7
-864 15 -875 8 -6 -5 -34 -67 -63 -138 -28 -72 -56 -136 -62 -142 -8 -9 -53
-13 -162 -13 -155 0 -180 6 -169 39 7 22 152 389 168 426 8 17 46 111 85 210
40 99 76 185 80 190 4 6 13 28 20 50 7 22 16 45 19 50 4 6 16 35 28 65 11 30
37 96 57 145 21 50 69 171 107 270 39 99 80 203 93 230 12 28 91 222 176 432
l153 382 111 4 c61 1 130 4 153 5 27 1 47 -4 57 -14z m-904 -729 c10 -12 4
-35 -33 -122 -25 -60 -63 -153 -85 -208 -21 -55 -92 -230 -157 -390 -280 -691
-438 -1084 -460 -1146 -12 -36 -30 -79 -39 -97 -9 -17 -16 -33 -16 -37 0 -3
252 -5 559 -5 495 0 561 -2 575 -16 13 -12 16 -41 16 -145 0 -72 -5 -139 -10
-150 -10 -19 -30 -19 -774 -19 -420 0 -777 3 -794 6 -39 8 -45 24 -25 71 9 21
37 92 63 158 74 186 252 627 276 680 7 17 30 75 52 130 47 118 220 550 261
650 16 39 43 106 61 150 39 101 44 112 63 157 9 20 41 101 72 180 32 78 62
149 67 156 16 19 311 17 328 -3z m2416 -140 c20 -14 17 -24 -63 -202 -9 -21
-24 -58 -34 -83 -34 -88 -148 -371 -163 -403 -14 -31 -257 -635 -338 -842 -22
-55 -44 -109 -49 -120 -9 -19 -82 -200 -119 -295 -9 -25 -38 -95 -63 -157 -26
-62 -70 -172 -98 -245 -28 -73 -59 -150 -69 -173 -18 -41 -95 -232 -202 -500
-32 -82 -74 -186 -93 -230 -27 -64 -365 -903 -471 -1169 -36 -90 -27 -86 -196
-86 -167 0 -170 2 -151 69 13 44 104 276 168 426 26 61 59 144 75 185 16 41
56 143 89 225 34 83 145 359 247 615 103 256 195 484 205 508 11 23 31 73 44
110 14 37 29 76 34 87 16 33 96 230 159 390 99 250 123 308 147 365 13 30 35
87 50 125 15 39 34 86 42 105 19 44 26 61 54 135 12 33 35 88 51 123 15 34 28
66 28 70 0 4 25 68 56 142 31 74 64 155 74 180 10 25 43 108 74 185 31 77 56
141 56 142 0 2 -244 3 -542 3 -299 0 -548 4 -554 8 -7 4 -13 47 -14 112 -4
173 -2 198 18 203 9 3 358 5 774 5 591 0 761 -3 774 -13z"/>
</g>
</svg>
